<?xml version="1.0" encoding="utf-8"?>
<!-- Generator: Adobe Illustrator 28.1.0, SVG Export Plug-In . SVG Version: 6.00 Build 0)  -->
<svg version="1.1" id="Layer_1" xmlns="http://www.w3.org/2000/svg" xmlns:xlink="http://www.w3.org/1999/xlink" x="0px" y="0px"
	 viewBox="0 0 314 314" style="enable-background:new 0 0 314 314;" xml:space="preserve">
<style type="text/css">
	.st0{fill:#FFFFFF;}
</style>
<g>
	<path class="st0" d="M52.58,307C27.44,307,7,286.56,7,261.43V52.58C7,27.45,27.44,7,52.58,7h208.85C286.55,7,307,27.45,307,52.58
		v208.85c0,25.13-20.45,45.58-45.58,45.58H52.58z"/>
	<path d="M261.42,10C284.9,10,304,29.1,304,52.58v208.85c0,23.48-19.1,42.58-42.58,42.58H52.58C29.1,304,10,284.9,10,261.43V52.58
		C10,29.1,29.1,10,52.58,10H261.42 M261.42,4H52.58C25.75,4,4,25.75,4,52.58v208.85C4,288.25,25.75,310,52.58,310h208.85
		c26.83,0,48.58-21.75,48.58-48.58V52.58C310,25.75,288.25,4,261.42,4L261.42,4z"/>
</g>
<g>
	<g>
		<rect x="103.71" y="89.22" transform="matrix(0.7071 -0.7071 0.7071 0.7071 -40.3195 167.324)" width="156.22" height="86.23"/>
	</g>
	<polygon points="77.02,236.98 192.27,253.25 60.75,121.73 	"/>
</g>
</svg>
