<?xml version="1.0" encoding="utf-8"?>
<!-- Generator: Adobe Illustrator 28.1.0, SVG Export Plug-In . SVG Version: 6.00 Build 0)  -->
<svg version="1.1" id="Layer_1" xmlns="http://www.w3.org/2000/svg" xmlns:xlink="http://www.w3.org/1999/xlink" x="0px" y="0px"
	 viewBox="0 0 314 314" style="enable-background:new 0 0 314 314;" xml:space="preserve">
<style type="text/css">
	.st0{fill:#FFFFFF;}
	.st1{display:none;}
	.st2{display:inline;}
	.st3{font-family:'Square721BT-Bold';}
	.st4{font-size:135.2079px;}
</style>
<g>
	<path class="st0" d="M52.6,307C27.4,307,7,286.6,7,261.4V52.6C7,27.5,27.4,7,52.6,7h208.8C286.5,7,307,27.5,307,52.6v208.8
		c0,25.1-20.5,45.6-45.6,45.6H52.6L52.6,307z"/>
	<path d="M261.4,10c23.5,0,42.6,19.1,42.6,42.6v208.8c0,23.5-19.1,42.6-42.6,42.6H52.6C29.1,304,10,284.9,10,261.4V52.6
		C10,29.1,29.1,10,52.6,10H261.4 M261.4,4H52.6C25.8,4,4,25.8,4,52.6v208.8C4,288.2,25.8,310,52.6,310h208.8
		c26.8,0,48.6-21.8,48.6-48.6V52.6C310,25.8,288.2,4,261.4,4L261.4,4z"/>
</g>
<g class="st1">
	<path class="st2" d="M46.5,165.3v0.7c0,5,2.3,6.7,9,6.7h4.6c5.5,0,7.6-1.2,7.6-5.1v-3c0-4-2.4-4.5-7.4-5.1l-14.9-1.6
		c-11.2-1.2-16.1-6.7-16.1-18v-4.3c0-6.4,2.1-11.5,6-14.7c4-3.3,9.2-3.8,16.6-3.8H63c13.9,0,21.2,5.9,21.2,16.2v4.7H66.4v-0.8
		c0-4.2-1.7-5.5-6.7-5.5h-4.3c-5.4,0-7.7,0.9-7.7,4.6v2.8c0,3.8,2.6,4.1,7.5,4.6l13.6,1.5c11.7,1.3,17.5,6.8,17.5,16.7v6.6
		c0,11.2-7.5,18.8-19.6,18.8h-15c-15.8,0-23-5.1-23-17.4v-4.7h17.8V165.3z"/>
	<path class="st2" d="M110.8,133.2H93.2v-15.3H147v15.3h-17.6v53.4h-18.6C110.8,186.6,110.8,133.2,110.8,133.2z"/>
	<path class="st2" d="M181,117.1h9.1c19.8,0,26.4,7.6,26.4,28.1v14.3c0,20.5-6.6,28.1-26.4,28.1H181c-19.8,0-26.3-7.6-26.3-28.1
		v-14.3C154.7,124.6,161.2,117.1,181,117.1z M173.5,158c0,10.5,0.9,13.3,10.3,13.3h3.4c9.4,0,10.4-2.8,10.4-13.3v-11.3
		c0-10.5-1-13.4-10.4-13.4h-3.4c-9.4,0-10.3,2.9-10.3,13.4V158z"/>
	<path class="st2" d="M228.2,117.9h32.2c17.6,0,25.3,6,25.3,22.9v4.5c0,16.8-7.7,23-25.3,23h-13.8v18.3h-18.4V117.9z M259.5,153
		c6,0,7.5-1.6,7.5-8.1v-4c0-5.5-2.3-7.6-8.2-7.6h-12.1V153H259.5z"/>
</g>
<text transform="matrix(1 0 0 1 55.9995 203.7266)" class="st1 st3 st4">UP</text>
<g>
	<path d="M27.8,125.7h29.3c16.4,0,22,6.2,22,22.9v11.6c0,16.8-5.5,22.9-22,22.9H27.8V125.7z M54.7,170.3c7.8,0,8.6-2.4,8.6-11.1
		v-9.5c0-8.8-0.8-11.2-8.6-11.2H43.2v31.9H54.7z"/>
	<path d="M109.1,125h7.6c16.5,0,22.1,6.3,22.1,23.5v11.9c0,17.2-5.5,23.5-22.1,23.5h-7.6c-16.5,0-22-6.3-22-23.5v-11.9
		C87.1,131.3,92.6,125,109.1,125z M102.9,159.2c0,8.8,0.8,11.1,8.6,11.1h2.8c7.8,0,8.7-2.4,8.7-11.1v-9.5c0-8.8-0.9-11.2-8.7-11.2
		h-2.8c-7.8,0-8.6,2.5-8.6,11.2V159.2z"/>
	<path d="M160.9,125.7l5.5,44l8.9-44h17.2l8.2,44l6-44h15.5l-9.6,57.5h-22l-7-39l-7.3,39h-22.2l-8.9-57.5H160.9z"/>
	<path d="M230.7,125.7h22.9l17.9,42.7v-42.7h14.7v57.5h-22.9l-17.9-43.1v43.1h-14.7V125.7z"/>
</g>
</svg>
