<?xml version="1.0" encoding="utf-8"?>
<!-- Generator: Adobe Illustrator 28.1.0, SVG Export Plug-In . SVG Version: 6.00 Build 0)  -->
<svg version="1.1" id="Layer_1" xmlns="http://www.w3.org/2000/svg" xmlns:xlink="http://www.w3.org/1999/xlink" x="0px" y="0px"
	 viewBox="0 0 314 314" style="enable-background:new 0 0 314 314;" xml:space="preserve">
<style type="text/css">
	.st0{fill:#FFFFFF;}
</style>
<g>
	<path class="st0" d="M52.6,307C27.4,307,7,286.6,7,261.4V52.6C7,27.5,27.4,7,52.6,7h208.8C286.5,7,307,27.5,307,52.6v208.8
		c0,25.1-20.5,45.6-45.6,45.6L52.6,307L52.6,307z"/>
	<path d="M261.4,10c23.5,0,42.6,19.1,42.6,42.6v208.8c0,23.5-19.1,42.6-42.6,42.6H52.6C29.1,304,10,284.9,10,261.4V52.6
		C10,29.1,29.1,10,52.6,10H261.4 M261.4,4H52.6C25.8,4,4,25.8,4,52.6v208.8C4,288.2,25.8,310,52.6,310h208.8
		c26.8,0,48.6-21.8,48.6-48.6V52.6C310,25.8,288.2,4,261.4,4L261.4,4z"/>
</g>
<g>
	<path d="M46.5,165.3v0.7c0,5,2.3,6.7,9,6.7h4.6c5.5,0,7.6-1.2,7.6-5.1v-3c0-4-2.4-4.5-7.4-5.1l-14.9-1.6
		c-11.2-1.2-16.1-6.7-16.1-18v-4.3c0-6.4,2.1-11.5,6-14.7c4-3.3,9.2-3.8,16.6-3.8h11.1c13.9,0,21.2,5.9,21.2,16.2v4.7H66.4v-0.8
		c0-4.2-1.7-5.5-6.7-5.5h-4.3c-5.4,0-7.7,0.9-7.7,4.6v2.8c0,3.8,2.6,4.1,7.5,4.6l13.6,1.5c11.7,1.3,17.5,6.8,17.5,16.7v6.6
		c0,11.2-7.5,18.8-19.6,18.8h-15c-15.8,0-23-5.1-23-17.4v-4.7H46.5z"/>
	<path d="M110.8,133.2H93.2v-15.3H147v15.3h-17.6v53.4h-18.6V133.2z"/>
	<path d="M181,117.1h9.1c19.8,0,26.4,7.6,26.4,28.1v14.3c0,20.5-6.6,28.1-26.4,28.1H181c-19.8,0-26.3-7.6-26.3-28.1v-14.3
		C154.7,124.6,161.2,117.1,181,117.1z M173.5,158c0,10.5,0.9,13.3,10.3,13.3h3.4c9.4,0,10.4-2.8,10.4-13.3v-11.3
		c0-10.5-1-13.4-10.4-13.4h-3.4c-9.4,0-10.3,2.9-10.3,13.4V158z"/>
	<path d="M228.2,117.9h32.2c17.6,0,25.3,6,25.3,22.9v4.5c0,16.8-7.7,23-25.3,23h-13.8v18.3h-18.4V117.9z M259.5,153
		c6,0,7.5-1.6,7.5-8.1v-4c0-5.5-2.3-7.6-8.2-7.6h-12.1V153H259.5z"/>
</g>
</svg>
