<?xml version="1.0" encoding="utf-8"?>
<!-- Generator: Adobe Illustrator 28.1.0, SVG Export Plug-In . SVG Version: 6.00 Build 0)  -->
<svg version="1.1" id="Layer_1" xmlns="http://www.w3.org/2000/svg" xmlns:xlink="http://www.w3.org/1999/xlink" x="0px" y="0px"
	 viewBox="0 0 691 303" style="enable-background:new 0 0 691 303;" xml:space="preserve">
<style type="text/css">
	.st0{fill:#0099E5;}
</style>
<g>
	<g>
		<g>
			<g>
				<path d="M571.2,41.4h-26.1c-1.1,0-2.2-0.4-2.9-1.1c-1.1-1.1-1.7-2.7-1.8-4.8c-0.1-1.1-0.2-1.7-0.2-2c-0.1-0.3-0.1-0.4-0.6-0.5
					c-0.4-0.1-1.8-0.5-5.3-0.5h-1.7c-3.6,0-4.9,0.3-5.3,0.5c-0.4,0.1-0.5,0.3-0.6,0.5c-0.1,0.3-0.2,0.9-0.2,2.1
					c-0.1,2.1-0.7,3.7-1.8,4.8c-0.7,0.7-1.8,1.1-2.9,1.1h-26.1c-2,0-3.7-1.3-3.7-2.8V10.2c0-1.6,1.6-2.8,3.7-2.8h75.5
					c2,0,3.7,1.3,3.7,2.8v28.3C574.9,40.1,573.2,41.4,571.2,41.4z M546.6,36.6h22.3V12.1H498v24.5h22.3c0.1-0.3,0.1-0.7,0.2-1.3
					c0.1-1.2,0.2-2.1,0.4-2.8c0.4-1.8,1.9-3.2,4.1-4c1.7-0.6,4.1-0.8,7.7-0.8h1.7c3.5,0,6,0.3,7.7,0.8c2.2,0.7,3.6,2.2,4.1,4
					c0.2,0.7,0.3,1.6,0.3,2.8C546.4,35.9,546.5,36.3,546.6,36.6z"/>
			</g>
			<g>
				<path d="M652.6,174.8c-2.4,0-5-0.3-7.9-1l-8.4-2c-4.9-1.2-8.6-3.4-10.8-6.4c-1.9-2.6-2.9-6-3-10.1l0-0.8l0.4-0.7
					c1.9-3.7,3.4-7.8,4.3-11.9l6.2-28.3c0.9-4.2,1.3-8.4,1.1-12.7l0-0.8l0.4-0.7c1.9-3.7,4.2-6.3,6.9-7.8c3.3-1.8,7.5-2,12.4-0.9
					l8.4,2c8.1,2,13.4,5.6,15.7,10.7l0,0c2.2,4.9,2,13.2-0.7,25.1l-4.4,20.1c-2.6,12-5.9,19.5-9.9,22.9
					C660.6,173.6,657,174.8,652.6,174.8z M628.5,155.7c0.2,2.5,0.8,4.4,1.8,5.8c1.4,1.9,3.8,3.3,7.4,4.1l8.4,2
					c6.3,1.5,10.8,1.1,13.5-1.2c2-1.7,5-6.5,7.9-19.5l4.4-20.1c2.9-13,2.2-18.6,1.1-21.1c-1.5-3.3-5.4-5.7-11.6-7.2l-8.4-2
					c-3.5-0.9-6.3-0.7-8.4,0.3c-1.5,0.8-2.8,2.3-4,4.4c0.1,2.4,0,4.8-0.3,7.2c0.1,0,0.1-0.1,0.2-0.1c1.6-1.1,3.8-1.3,6.7-0.6
					l12.2,2.9c2.9,0.7,4.8,1.9,5.8,3.6c1,1.7,1.2,4,0.5,7.3l-1.6,7.4l-26.4-6.3l-2.8,12.5l26.4,6.3l-1.6,7.4
					c-0.7,3.2-1.8,5.3-3.5,6.4c-1.6,1.1-3.8,1.3-6.7,0.6l-12.2-2.9c-2.8-0.7-4.7-1.9-5.7-3.6c0-0.1-0.1-0.1-0.1-0.2
					C630.5,151.4,629.6,153.6,628.5,155.7z M636.4,146.1c0.2,0.1,0.7,0.5,2,0.8l12.2,2.9c1.3,0.3,1.9,0.3,2.2,0.2
					c0.1-0.2,0.5-0.9,0.9-2.5l0.3-1.4l-16.9-4.1l-0.3,1.4C636.4,145.1,636.4,145.8,636.4,146.1z M652.9,150L652.9,150L652.9,150z
					 M636.5,146.2L636.5,146.2L636.5,146.2z M636.4,146L636.4,146L636.4,146z M642.4,117.4l16.9,4.1l0.3-1.4
					c0.4-1.6,0.3-2.4,0.3-2.6c-0.2-0.1-0.7-0.5-2-0.8l-12.2-2.9c-1.3-0.3-1.9-0.3-2.1-0.2c-0.1,0.2-0.5,0.9-0.9,2.5L642.4,117.4z
					 M660,117.6C660,117.6,660,117.6,660,117.6C660,117.6,660,117.6,660,117.6z M659.9,117.4L659.9,117.4L659.9,117.4z M643.7,113.5
					L643.7,113.5L643.7,113.5z"/>
			</g>
			<g>
				<path d="M417.1,174.8c-4.4,0-8-1.2-10.7-3.5c-4-3.4-7.3-10.9-9.9-22.9l-4.4-20.1c-2.6-12-2.9-20.2-0.7-25.1
					c2.3-5.1,7.6-8.7,15.7-10.7l8.4-2c4.9-1.2,9.1-0.9,12.4,0.9c2.7,1.5,5.1,4.1,6.9,7.8l0.4,0.7l0,0.8c-0.2,4.2,0.2,8.5,1.1,12.7
					l6.2,28.3c0.9,4.2,2.4,8.2,4.3,11.9l0.4,0.7l0,0.8c-0.1,4.2-1.1,7.6-3,10.1c-2.2,3.1-5.9,5.2-10.8,6.4l-8.4,2
					C422.1,174.4,419.5,174.8,417.1,174.8z M421.1,96c-1.3,0-2.7,0.2-4.3,0.6l-8.4,2c-6.3,1.5-10.2,3.9-11.6,7.2
					c-1.1,2.5-1.8,8.1,1.1,21.1v0l4.4,20.1c2.9,13,5.9,17.8,7.9,19.5c2.7,2.3,7.2,2.7,13.5,1.2l8.4-2c3.5-0.9,6-2.2,7.4-4.1
					c1-1.4,1.6-3.3,1.8-5.8c-1-2.1-2-4.3-2.7-6.6c0,0.1-0.1,0.1-0.1,0.2c-1,1.7-2.9,2.9-5.7,3.6l-12.2,2.9c-2.9,0.7-5.1,0.5-6.7-0.6
					c-1.6-1.1-2.7-3.1-3.5-6.4l-1.6-7.4l26.4-6.3l-2.8-12.5l-26.4,6.3l-1.6-7.4c-0.7-3.2-0.6-5.6,0.5-7.3c1-1.7,2.9-2.9,5.8-3.6
					l12.2-2.9c2.8-0.7,5-0.5,6.7,0.6c0.1,0,0.1,0.1,0.2,0.1c-0.2-2.4-0.3-4.8-0.3-7.2c-1.2-2.1-2.5-3.6-4-4.4
					C424.1,96.3,422.7,96,421.1,96z M416.9,150c0.2,0,0.8,0.1,2.2-0.2l12.2-2.9c1.3-0.3,1.8-0.6,2-0.8c0-0.2,0.1-1-0.3-2.6l-0.3-1.4
					l-16.9,4.1l0.3,1.4C416.4,149.1,416.8,149.8,416.9,150z M416.9,150L416.9,150L416.9,150z M433.3,146L433.3,146L433.3,146z
					 M409.8,117.5c0,0.2-0.1,1,0.3,2.6v0l0.3,1.4l16.9-4.1L427,116c-0.4-1.6-0.7-2.3-0.9-2.5c-0.2,0-0.8-0.1-2.1,0.2l-12.2,2.9
					C410.5,117,410,117.4,409.8,117.5z M409.7,117.6C409.7,117.6,409.7,117.6,409.7,117.6C409.7,117.6,409.7,117.6,409.7,117.6z
					 M409.8,117.4L409.8,117.4L409.8,117.4z"/>
			</g>
			<path d="M636.8,88.2c0-4.7-0.6-9.2-1.7-13.4c-5.7-21.6-24.6-37.5-47-37.5H478.8c-20.8,0-38.6,13.7-45.5,32.9
				c-2,5.6-3.2,11.7-3.2,18v29.1c0,6.3,1.1,12.4,3.2,18c7,19.2,24.7,32.9,45.5,32.9h109.3c22.4,0,41.3-15.9,47-37.5
				c1.1-4.3,1.7-8.8,1.7-13.4V88.2z M588.1,159.9H478.8c-14.1,0-26.6-7.5-33.9-19c-4.3-6.8-6.8-14.9-6.8-23.6V88.2
				c0-8.7,2.5-16.8,6.8-23.6c7.3-11.4,19.8-19,33.9-19h109.3c14.1,0,26.6,7.5,33.9,19c4.3,6.8,6.8,14.9,6.8,23.6v29.1
				c0,8.7-2.5,16.8-6.8,23.6C614.7,152.3,602.2,159.9,588.1,159.9z"/>
			<path d="M617.8,91.5c0-3.4-0.5-6.6-1.4-9.7c-4.6-15.6-19.9-27-38-27H490c-16.8,0-31.2,9.9-36.8,23.7c-1.6,4-2.6,8.4-2.6,13v21
				c0,4.6,0.9,9,2.6,13c5.6,13.9,20,23.7,36.8,23.7h88.4c18.1,0,33.4-11.5,38-27c0.9-3.1,1.4-6.3,1.4-9.7V91.5z M578.4,143.3H490
				c-11.4,0-21.5-5.4-27.4-13.7c-3.5-4.9-5.5-10.7-5.5-17v-21c0-6.3,2-12.2,5.5-17c5.9-8.3,16-13.7,27.4-13.7h88.4
				c11.4,0,21.5,5.4,27.4,13.7c3.5,4.9,5.5,10.7,5.5,17v21c0,6.3-2,12.2-5.5,17C599.9,137.8,589.8,143.3,578.4,143.3z"/>
			<rect x="511.6" y="73.8" width="7.8" height="25.9"/>
			<rect x="547.3" y="74.1" width="8.9" height="25.9"/>
			<g>
				<path d="M529,132.1c-9.1,0-22.1-1.5-30.9-9c-5.8-5-9.1-11.8-9.5-20.2l7.9-0.5c0.3,6.1,2.5,10.7,6.6,14.2
					c11.8,10.1,35.3,6.6,35.5,6.5l1.2,8.2C539.3,131.5,535,132.1,529,132.1z"/>
			</g>
		</g>
	</g>
	<path d="M397.8,60.6c-1.4,0-2.5-1.1-2.5-2.5c0-24,21.9-46.8,45.2-46.8c1.4,0,2.5,1.1,2.5,2.5s-1.1,2.5-2.5,2.5
		c-20.6,0-40.2,20.3-40.2,41.8C400.3,59.5,399.2,60.6,397.8,60.6z"/>
	<path d="M408.9,78.2c-1.4,0-2.5-1.1-2.5-2.5c0-30.1,23.1-54.6,51.6-54.6c1.4,0,2.5,1.1,2.5,2.5s-1.1,2.5-2.5,2.5
		c-25.7,0-46.6,22.2-46.6,49.6C411.4,77,410.2,78.2,408.9,78.2z"/>
	<g>
		<g>
			<g>
				<g>
					<path d="M60,133.4c0-5.8-0.8-9.8-2.5-11.9s-4.8-3.3-9.3-3.3h-5v57.5H13.2V8.3h31.4c18.6,0,30.9,3,36.9,9.1c6,6.1,9,17.4,9,33.8
						v19.2c0,9.7-1.6,17.1-4.9,22.1c-3.3,5.1-8.6,8.5-16,10.2c6.9,1.3,11.9,4.3,15.2,9c3.3,4.7,4.9,11.4,4.9,20.1v43.8H60V133.4z
						 M50.6,37.8h-7.3v51.7h7.3c3.9,0,6.5-0.8,7.8-2.5c1.3-1.7,2-4.8,2-9.4V49.9c0-4.7-0.7-7.8-2-9.5S54.5,37.8,50.6,37.8z"/>
					<path d="M184.5,130.7c0,11.5-0.5,19.7-1.5,24.6c-1,4.9-2.7,9.1-5.1,12.5c-2.6,3.7-5.9,6.3-9.8,7.7c-4,1.5-11.4,2.2-22.4,2.2
						c-11,0-18.5-0.7-22.5-2.2c-4-1.5-7.2-4-9.8-7.7c-2.4-3.5-4.2-7.7-5.2-12.8s-1.6-13.2-1.6-24.3V53.4c0-11.1,0.5-19.2,1.5-24.2
						c1-5,2.8-9.3,5.3-12.7c2.7-3.8,6.2-6.4,10.6-7.9c4.4-1.5,11.6-2.3,21.7-2.3c10.1,0,17.2,0.8,21.6,2.3c4.3,1.5,7.8,4.1,10.5,7.9
						c2.5,3.5,4.3,7.7,5.3,12.7c1,5,1.5,13.1,1.5,24.2V130.7z M153.7,136.2V48c0-4.7-0.5-7.8-1.6-9.4c-1.1-1.6-3.2-2.4-6.4-2.4
						c-3.3,0-5.4,0.8-6.5,2.4c-1.1,1.6-1.6,4.7-1.6,9.4v88.2c0,4.7,0.5,7.9,1.6,9.4c1.1,1.5,3.2,2.3,6.5,2.3c3.2,0,5.3-0.8,6.4-2.3
						C153.1,144,153.7,140.9,153.7,136.2z"/>
					<path d="M280.4,140.8c0,13.4-2.4,22.5-7.3,27.4c-4.9,4.9-14.7,7.4-29.5,7.4h-41.8V8.3h40.3c14.8,0,24.7,2.5,29.6,7.6
						c4.9,5,7.4,14.2,7.4,27.5V58c0,9.2-1.6,16.2-4.7,20.9c-3.1,4.7-8.4,7.9-15.8,9.5c7.3,0.5,12.8,3.4,16.4,9
						c3.6,5.5,5.4,13.7,5.4,24.5V140.8z M231.7,76.8h8.4c3.7,0,6.2-0.8,7.4-2.5c1.2-1.7,1.8-4.8,1.8-9.5v-15c0-4.7-0.6-7.8-1.8-9.5
						s-3.7-2.5-7.4-2.5h-8.4V76.8z M231.7,102.7v43.6h9.1c3.7,0,6.2-0.8,7.5-2.5c1.2-1.7,1.9-4.9,1.9-9.5v-19.4
						c0-4.7-0.6-7.8-1.9-9.6c-1.3-1.7-3.7-2.6-7.4-2.6H231.7z"/>
					<path d="M376.9,130.7c0,11.5-0.5,19.7-1.5,24.6c-1,4.9-2.7,9.1-5.1,12.5c-2.6,3.7-5.9,6.3-9.8,7.7c-4,1.5-11.4,2.2-22.4,2.2
						c-11,0-18.5-0.7-22.5-2.2c-4-1.5-7.2-4-9.8-7.7c-2.4-3.5-4.2-7.7-5.2-12.8c-1-5.1-1.6-13.2-1.6-24.3V53.4
						c0-11.1,0.5-19.2,1.5-24.2c1-5,2.8-9.3,5.3-12.7c2.7-3.8,6.2-6.4,10.6-7.9c4.4-1.5,11.6-2.3,21.7-2.3c10.1,0,17.2,0.8,21.6,2.3
						c4.3,1.5,7.8,4.1,10.5,7.9c2.5,3.5,4.3,7.7,5.3,12.7c1,5,1.5,13.1,1.5,24.2V130.7z M346,136.2V48c0-4.7-0.5-7.8-1.6-9.4
						c-1.1-1.6-3.2-2.4-6.4-2.4c-3.3,0-5.4,0.8-6.5,2.4c-1.1,1.6-1.6,4.7-1.6,9.4v88.2c0,4.7,0.5,7.9,1.6,9.4
						c1.1,1.5,3.2,2.3,6.5,2.3c3.2,0,5.3-0.8,6.4-2.3C345.5,144,346,140.9,346,136.2z"/>
				</g>
				<g>
					<path class="st0" d="M65.7,267.7c0-3.8-1-6.3-2.9-7.8c-1.9-1.4-5.5-2.1-10.8-2.1h-5.8v37.3h-35V186.4h36.4
						c21.6,0,35.8,2,42.8,5.9c6.9,4,10.4,11.3,10.4,22v12.4c0,6.3-1.9,11.1-5.7,14.4c-3.8,3.3-10,5.5-18.5,6.6
						c8,0.8,13.8,2.8,17.7,5.9c3.8,3.1,5.7,7.4,5.7,13v28.5H65.7V267.7z M54.8,205.6h-8.5v33.6h8.5c4.5,0,7.5-0.5,9.1-1.6
						c1.5-1.1,2.3-3.1,2.3-6.1v-18c0-3-0.8-5.1-2.3-6.2C62.3,206.2,59.3,205.6,54.8,205.6z"/>
					<path class="st0" d="M113.7,295.2L136,186.4H192l23,108.7h-35.8l-4.1-26.7h-22.2l-4.1,26.7H113.7z M156,250.4h15.9l-7.7-51.3
						L156,250.4z"/>
					<path class="st0" d="M264.7,295.2h-35V186.4h35V295.2z"/>
					<path class="st0" d="M287.8,295.2V186.4h44.3c17.8,0,29.8,2.3,36,6.8c6.2,4.6,9.3,13.5,9.3,26.9v41.2c0,13.4-3.1,22.3-9.3,26.9
						c-6.2,4.6-18.2,6.8-36,6.8H287.8z M341.4,268.4v-55.1c0-3-0.6-5-1.8-5.9c-1.2-1-3.7-1.5-7.5-1.5h-9.3v69.9h9.3
						c3.7,0,6.2-0.5,7.4-1.5C340.8,273.3,341.4,271.4,341.4,268.4z"/>
					<path class="st0" d="M397.6,295.2V186.4h66.1v19.5h-31.1v24h29.1v18.7h-29.1v27h34v19.5H397.6z"/>
					<path class="st0" d="M537.8,267.7c0-3.8-1-6.3-2.9-7.8c-1.9-1.4-5.5-2.1-10.8-2.1h-5.8v37.3h-35V186.4h36.4
						c21.6,0,35.8,2,42.8,5.9c6.9,4,10.4,11.3,10.4,22v12.4c0,6.3-1.9,11.1-5.7,14.4c-3.8,3.3-10,5.5-18.5,6.6
						c8,0.8,13.8,2.8,17.7,5.9c3.8,3.1,5.7,7.4,5.7,13v28.5h-34.4V267.7z M526.9,205.6h-8.5v33.6h8.5c4.5,0,7.5-0.5,9.1-1.6
						c1.5-1.1,2.3-3.1,2.3-6.1v-18c0-3-0.8-5.1-2.3-6.2C534.4,206.2,531.4,205.6,526.9,205.6z"/>
					<path class="st0" d="M623.4,258.9v10.5c0,2.8,0.8,4.8,2.3,6c1.6,1.2,4.2,1.8,7.9,1.8c4,0,6.8-0.6,8.2-1.7
						c1.4-1.1,2.1-3.2,2.1-6.4v-7.7c0-2.3-0.2-4.1-0.6-5.2c-0.4-1.1-1.1-2.1-2-3c-2.3-2-7.6-3.7-15.9-5c-3.8-0.6-6.7-1.1-8.8-1.5
						c-9.7-2-16.4-4.8-20-8.4c-3.6-3.6-5.5-9.2-5.5-17v-10c0-9.8,2.6-16.6,7.8-20.4c5.2-3.9,14.3-5.8,27.2-5.8h10.3
						c8.1,0,14.7,0.5,19.9,1.5c5.2,1,9.3,2.6,12.2,4.8c2.4,1.7,4,3.9,5,6.5c0.9,2.6,1.4,6.9,1.4,12.7v8.4h-31.1v-6.8
						c0-3.4-0.6-5.7-1.9-6.8s-3.8-1.7-7.6-1.7c-3.7,0-6.2,0.5-7.5,1.6c-1.3,1.1-2,3-2,5.9v7c0,5.3,6.3,9.1,18.8,11.4
						c3.6,0.7,6.4,1.2,8.5,1.7c9.6,2,16.3,4.7,19.9,8.2c3.6,3.5,5.4,9.1,5.4,16.7v14.6c0,9.1-3,15.6-9,19.6c-6,4-15.7,6-29.2,6h-9.3
						c-14.8,0-25-1.8-30.6-5.5c-5.6-3.7-8.3-10.4-8.3-20.3v-11.9H623.4z"/>
				</g>
			</g>
		</g>
		<g>
			<path d="M653.2,11.5c-11.3,0-20.6,9.6-20.6,21.4c0,11.8,9.2,21.4,20.6,21.4c11.3,0,20.6-9.6,20.6-21.4
				C673.8,21.1,664.6,11.5,653.2,11.5z M653.2,51.4c-9.9,0-17.9-8.3-17.9-18.6c0-10.2,8-18.6,17.9-18.6c9.9,0,17.9,8.3,17.9,18.6
				C671.1,43.1,663.1,51.4,653.2,51.4z"/>
			<path d="M653.8,39.8c-5.1,0-7-3.7-7-7.2c0-3.6,2.1-7.4,7-7.4c1.8,0,3.6,0.6,4.9,2l2.6-2.6c-2.1-2.2-4.7-3.2-7.5-3.2
				c-7.4,0-10.9,5.6-10.8,11.2c0,5.5,3.2,11,10.8,11c3,0,5.7-1,7.8-3.2l-2.6-2.8C657.6,39.1,655.6,39.8,653.8,39.8z"/>
		</g>
	</g>
</g>
</svg>
